<?xml version="1.0" standalone="no"?>
<!DOCTYPE svg PUBLIC "-//W3C//DTD SVG 20010904//EN"
 "http://www.w3.org/TR/2001/REC-SVG-20010904/DTD/svg10.dtd">
<svg version="1.0" xmlns="http://www.w3.org/2000/svg"
 width="9375.000000pt" height="9375.000000pt" viewBox="0 0 9375.000000 9375.000000"
 preserveAspectRatio="xMidYMid meet">

<g transform="translate(0.000000,9375.000000) scale(0.100000,-0.100000)"
fill="#000000" stroke="none">
<path d="M0 46875 l0 -46875 46875 0 46875 0 0 46875 0 46875 -46875 0 -46875
0 0 -46875z m50230 -13870 c0 -2 -13 -19 -29 -37 -15 -18 -541 -690 -1167
-1493 -627 -803 -1341 -1718 -1588 -2032 l-448 -573 -442 0 -443 0 -105 133
c-57 72 -181 229 -275 348 l-171 216 151 194 c83 107 532 682 997 1279 465
597 999 1282 1185 1522 l340 437 975 3 c536 2 985 4 998 6 12 1 22 0 22 -3z
m-6758 -757 c321 -414 920 -1186 1332 -1716 l747 -963 -28 -38 c-15 -21 -136
-176 -268 -345 l-240 -308 -450 7 c-247 4 -453 9 -457 11 -9 6 -543 684 -2007
2549 -657 836 -1201 1528 -1209 1538 -14 16 34 17 990 17 l1005 0 585 -752z"/>
</g>
</svg>
