<svg xmlns="http://www.w3.org/2000/svg" xmlns:xlink="http://www.w3.org/1999/xlink" width="800" zoomAndPan="magnify" viewBox="0 0 600 599.999999" height="800" preserveAspectRatio="xMidYMid meet" version="1.0"><defs><clipPath id="5041250da1"><path d="M 90 367 L 127 367 L 127 562.125 L 90 562.125 Z M 90 367 " clip-rule="nonzero"/></clipPath><clipPath id="49bc7211c5"><path d="M 216 335 L 253.703125 335 L 253.703125 562.125 L 216 562.125 Z M 216 335 " clip-rule="nonzero"/></clipPath><clipPath id="bbf4451712"><path d="M 342 284 L 379.820312 284 L 379.820312 562.125 L 342 562.125 Z M 342 284 " clip-rule="nonzero"/></clipPath><clipPath id="c3a6329f2e"><path d="M 469 217 L 505.933594 217 L 505.933594 562.125 L 469 562.125 Z M 469 217 " clip-rule="nonzero"/></clipPath><clipPath id="137356f0a9"><path d="M 419 37.875 L 599.128906 37.875 L 599.128906 218 L 419 218 Z M 419 37.875 " clip-rule="nonzero"/></clipPath></defs><g clip-path="url(#5041250da1)"><path fill="#191716" d="M 126.84375 385.535156 L 126.84375 543.75 C 126.84375 553.902344 118.605469 562.140625 108.453125 562.140625 C 98.300781 562.140625 90.0625 553.902344 90.0625 543.75 L 90.0625 385.535156 C 90.0625 375.382812 98.300781 367.144531 108.453125 367.144531 C 118.605469 367.144531 126.84375 375.382812 126.84375 385.535156 " fill-opacity="1" fill-rule="evenodd"/></g><g clip-path="url(#49bc7211c5)"><path fill="#191716" d="M 253.199219 353.707031 L 253.199219 543.75 C 253.199219 553.902344 244.960938 562.140625 234.808594 562.140625 C 224.660156 562.140625 216.421875 553.902344 216.421875 543.75 L 216.421875 353.707031 C 216.421875 343.550781 224.660156 335.320312 234.808594 335.320312 C 244.960938 335.320312 253.199219 343.550781 253.199219 353.707031 " fill-opacity="1" fill-rule="evenodd"/></g><g clip-path="url(#bbf4451712)"><path fill="#191716" d="M 379.5625 302.75 L 379.5625 543.75 C 379.5625 553.902344 371.324219 562.140625 361.171875 562.140625 C 351.023438 562.140625 342.785156 553.902344 342.785156 543.75 L 342.785156 302.75 C 342.785156 292.597656 351.023438 284.359375 361.171875 284.359375 C 371.324219 284.359375 379.5625 292.597656 379.5625 302.75 " fill-opacity="1" fill-rule="evenodd"/></g><g clip-path="url(#c3a6329f2e)"><path fill="#191716" d="M 505.921875 236.226562 L 505.921875 543.75 C 505.921875 553.902344 497.683594 562.140625 487.53125 562.140625 C 477.378906 562.140625 469.140625 553.902344 469.140625 543.75 L 469.140625 236.226562 C 469.140625 226.074219 477.378906 217.835938 487.53125 217.835938 C 497.683594 217.835938 505.921875 226.074219 505.921875 236.226562 " fill-opacity="1" fill-rule="evenodd"/></g><path fill="#191716" d="M 19.007812 347.054688 C 8.910156 346.585938 1.058594 338.019531 1.496094 327.917969 C 1.933594 317.800781 10.527344 309.914062 20.640625 310.363281 C 37.285156 311.097656 54.914062 310.09375 71.460938 308.667969 C 115.3125 304.875 159.238281 296.226562 201.46875 283.917969 C 343.675781 242.460938 466.023438 159.6875 562.191406 47.371094 C 568.757812 39.707031 580.414062 38.796875 588.082031 45.363281 C 595.753906 51.929688 596.664062 63.589844 590.097656 71.261719 C 489.269531 189.011719 360.867188 275.558594 211.820312 319.03125 C 167.203125 332.039062 120.832031 341.167969 74.503906 345.207031 C 61.15625 346.367188 47.714844 347.128906 34.308594 347.261719 C 29.238281 347.316406 24.078125 347.308594 19.007812 347.054688 " fill-opacity="1" fill-rule="evenodd"/><g clip-path="url(#137356f0a9)"><path fill="#191716" d="M 428.195312 37.90625 C 423.140625 37.90625 419.035156 42.007812 419.035156 47.066406 C 419.035156 53.414062 588.914062 217.964844 589.9375 217.964844 C 594.992188 217.964844 599.097656 213.863281 599.097656 208.804688 L 599.097656 47.878906 C 599.121094 47.609375 599.132812 47.339844 599.132812 47.066406 C 599.132812 41.992188 595.019531 37.867188 589.9375 37.867188 L 589.9375 37.90625 L 428.195312 37.90625 " fill-opacity="1" fill-rule="nonzero"/></g></svg>