<svg xmlns="http://www.w3.org/2000/svg" xmlns:xlink="http://www.w3.org/1999/xlink" width="800" zoomAndPan="magnify" viewBox="0 0 600 599.999999" height="800" preserveAspectRatio="xMidYMid meet" version="1.0"><defs><clipPath id="c9524e1730"><path d="M 155 5.621094 L 442 5.621094 L 442 231 L 155 231 Z M 155 5.621094 " clip-rule="nonzero"/></clipPath></defs><g clip-path="url(#c9524e1730)"><path fill="#8b98a6" d="M 155.011719 132.429688 C 155.011719 61.5625 212.417969 4.113281 283.230469 4.113281 L 313.398438 4.113281 C 384.214844 4.113281 441.617188 61.5625 441.617188 132.429688 L 441.617188 207.910156 C 441.617188 220.417969 431.488281 230.554688 418.992188 230.554688 C 406.496094 230.554688 396.367188 220.417969 396.367188 207.910156 L 396.367188 132.429688 C 396.367188 86.574219 359.222656 49.402344 313.398438 49.402344 L 283.230469 49.402344 C 237.410156 49.402344 200.265625 86.574219 200.265625 132.429688 L 200.265625 207.910156 C 200.265625 220.417969 190.136719 230.554688 177.640625 230.554688 C 165.144531 230.554688 155.011719 220.417969 155.011719 207.910156 Z M 155.011719 132.429688 " fill-opacity="1" fill-rule="evenodd"/></g><path fill="#ffc44d" d="M 147.46875 185.265625 C 109.980469 185.265625 79.589844 215.679688 79.589844 253.199219 L 79.589844 524.929688 C 79.589844 562.445312 109.980469 592.863281 147.46875 592.863281 L 449.160156 592.863281 C 486.648438 592.863281 517.042969 562.445312 517.042969 524.929688 L 517.042969 253.199219 C 517.042969 215.679688 486.648438 185.265625 449.160156 185.265625 Z M 147.46875 185.265625 " fill-opacity="1" fill-rule="nonzero"/><path fill="#eceff1" d="M 298.316406 275.84375 C 260.828125 275.84375 230.433594 306.257812 230.433594 343.777344 C 230.433594 381.292969 260.828125 411.710938 298.316406 411.710938 C 335.804688 411.710938 366.195312 381.292969 366.195312 343.777344 C 366.195312 306.257812 335.804688 275.84375 298.316406 275.84375 Z M 298.316406 275.84375 " fill-opacity="1" fill-rule="nonzero"/><path fill="#eceff1" d="M 298.316406 366.421875 C 235.832031 366.421875 185.183594 417.109375 185.183594 479.640625 C 185.183594 492.148438 195.3125 502.285156 207.808594 502.285156 L 388.824219 502.285156 C 401.320312 502.285156 411.449219 492.148438 411.449219 479.640625 C 411.449219 417.109375 360.800781 366.421875 298.316406 366.421875 Z M 298.316406 366.421875 " fill-opacity="1" fill-rule="nonzero"/></svg>