<svg xmlns="http://www.w3.org/2000/svg" xmlns:xlink="http://www.w3.org/1999/xlink" width="800" zoomAndPan="magnify" viewBox="0 0 600 599.999999" height="800" preserveAspectRatio="xMidYMid meet" version="1.0"><path fill="#f9ada3" d="M 207.898438 357.019531 L 137.183594 315.515625 C 132.292969 312.730469 126.917969 311.394531 121.664062 311.394531 C 110.390625 311.394531 99.601562 317.375 93.984375 328.328125 C 93.902344 328.488281 93.863281 328.648438 93.824219 328.773438 L 64.484375 219.542969 C 60.121094 203.339844 44.117188 192.066406 27.671875 195.542969 C 12.84375 198.652344 2.980469 211.625 2.980469 225.847656 C 2.980469 228.515625 3.304688 231.222656 4.03125 233.890625 L 48.929688 401.429688 C 51.070312 409.46875 55.636719 416.703125 61.980469 422.117188 L 110.1875 463.457031 C 119.363281 471.335938 124.65625 482.8125 124.65625 494.894531 L 124.65625 517.242188 L 248.792969 517.242188 L 248.792969 428.382812 C 248.792969 399.042969 233.234375 371.886719 207.898438 357.019531 " fill-opacity="1" fill-rule="nonzero"/><path fill="#f9ada3" d="M 573.363281 195.542969 C 556.914062 192.066406 540.871094 203.339844 536.550781 219.542969 L 507.210938 328.773438 C 507.171875 328.648438 507.132812 328.488281 507.050781 328.328125 C 501.433594 317.375 490.644531 311.394531 479.371094 311.394531 C 474.117188 311.394531 468.742188 312.730469 463.851562 315.515625 L 393.136719 357.019531 C 367.800781 371.886719 352.242188 399.042969 352.242188 428.382812 L 352.242188 517.242188 L 476.378906 517.242188 L 476.378906 494.894531 C 476.378906 482.8125 481.671875 471.335938 490.847656 463.457031 L 539.054688 422.117188 C 545.398438 416.703125 549.925781 409.46875 552.105469 401.429688 L 597 233.890625 C 597.730469 231.222656 598.050781 228.515625 598.050781 225.847656 C 598.050781 211.625 588.191406 198.652344 573.363281 195.542969 " fill-opacity="1" fill-rule="nonzero"/><path fill="#3b5bb2" d="M 321.207031 517.242188 L 321.207031 600 L 507.414062 600 L 507.414062 517.242188 L 321.207031 517.242188 " fill-opacity="1" fill-rule="nonzero"/><path fill="#3b5bb2" d="M 93.621094 517.242188 L 93.621094 600 L 279.828125 600 L 279.828125 517.242188 L 93.621094 517.242188 " fill-opacity="1" fill-rule="nonzero"/><path fill="#a9d81b" d="M 455.691406 0 L 455.691406 130.359375 C 455.691406 222.007812 405.097656 306.304688 324.195312 349.460938 L 300.515625 362.070312 L 276.835938 349.460938 C 195.9375 306.304688 145.34375 222.007812 145.34375 130.359375 L 145.34375 0 L 160.011719 8.363281 C 196.140625 28.972656 240.105469 30.1875 277.121094 11.679688 L 300.515625 0 L 323.914062 11.679688 C 360.929688 30.1875 404.894531 28.972656 440.898438 8.363281 L 455.691406 0 " fill-opacity="1" fill-rule="nonzero"/><path fill="#54b236" d="M 379.355469 66.148438 C 353.816406 66.148438 328.199219 60.128906 305.367188 48.695312 L 300.476562 46.269531 L 295.707031 48.652344 C 272.835938 60.089844 247.21875 66.148438 221.636719 66.148438 C 209.878906 66.148438 198.160156 64.898438 186.722656 62.390625 L 186.722656 130.359375 C 186.722656 206.9375 228.710938 276.886719 296.273438 312.890625 L 300.515625 315.152344 L 304.761719 312.890625 C 372.324219 276.886719 414.308594 206.9375 414.308594 130.359375 L 414.308594 62.433594 C 402.875 64.898438 391.15625 66.148438 379.355469 66.148438 " fill-opacity="1" fill-rule="nonzero"/><path fill="#479335" d="M 379.355469 66.148438 C 377.214844 66.148438 375.074219 65.867188 372.929688 65.785156 L 372.929688 130.359375 C 372.929688 200.472656 337.652344 264.964844 279.828125 303.03125 C 285.160156 306.507812 290.578125 309.859375 296.273438 312.890625 L 300.515625 315.152344 L 304.761719 312.890625 C 372.324219 276.886719 414.308594 206.9375 414.308594 130.359375 L 414.308594 62.433594 C 402.875 64.898438 391.15625 66.148438 379.355469 66.148438 " fill-opacity="1" fill-rule="nonzero"/><path fill="#2b4da7" d="M 507.414062 548.277344 L 321.207031 548.277344 L 321.207031 517.242188 L 507.414062 517.242188 L 507.414062 548.277344 " fill-opacity="1" fill-rule="nonzero"/><path fill="#2b4da7" d="M 279.828125 548.277344 L 93.621094 548.277344 L 93.621094 517.242188 L 279.828125 517.242188 L 279.828125 548.277344 " fill-opacity="1" fill-rule="nonzero"/><path fill="#f4f6f5" d="M 359.03125 113.066406 L 279.828125 192.269531 L 247.539062 159.980469 C 243.5 155.941406 236.953125 155.941406 232.914062 159.980469 C 228.871094 164.023438 228.871094 170.570312 232.914062 174.609375 L 272.511719 214.210938 C 274.535156 216.230469 277.160156 217.242188 279.828125 217.242188 C 282.496094 217.242188 285.121094 216.230469 287.140625 214.210938 L 373.660156 127.695312 C 377.699219 123.652344 377.699219 117.105469 373.660156 113.066406 C 369.617188 109.023438 363.070312 109.023438 359.03125 113.066406 " fill-opacity="1" fill-rule="nonzero"/><path fill="#f57e6d" d="M 509.675781 336.8125 C 508.019531 346.105469 502.28125 354.714844 493.59375 359.726562 L 434.597656 392.253906 L 439.164062 401.429688 L 493.59375 370.070312 C 505.472656 363.242188 511.859375 349.703125 509.675781 336.8125 " fill-opacity="1" fill-rule="nonzero"/><path fill="#f57e6d" d="M 91.359375 336.8125 C 93.015625 346.105469 98.753906 354.714844 107.441406 359.726562 L 166.4375 392.253906 L 161.871094 401.429688 L 107.441406 370.070312 C 95.558594 363.242188 89.175781 349.703125 91.359375 336.8125 " fill-opacity="1" fill-rule="nonzero"/></svg>